<?xml version="1.0" encoding="utf-8"?>
<!-- Generator: Adobe Illustrator 19.0.0, SVG Export Plug-In . SVG Version: 6.00 Build 0)  -->
<svg version="1.1" id="Layer_1" xmlns="http://www.w3.org/2000/svg" xmlns:xlink="http://www.w3.org/1999/xlink" x="0px" y="0px"
	 viewBox="0 0 140.7 113.1" style="enable-background:new 0 0 140.7 113.1;" xml:space="preserve">
<style type="text/css">
	.st0{fill:#00A0E9;}
	.st1{fill:#2D3D78;}
	.st2{fill:#D97A3D;}
</style>
<g id="XMLID_36_">
	<g id="XMLID_96_">
		<g id="XMLID_97_">
			<g id="XMLID_98_">
				
					<rect id="XMLID_99_" x="60.1" y="32.4" transform="matrix(0.7071 -0.7071 0.7071 0.7071 -9.4826 61.9598)" class="st0" width="20" height="20"/>
			</g>
		</g>
	</g>
</g>
<g id="XMLID_23_">
	<g id="XMLID_91_">
		<g id="XMLID_92_">
			<g id="XMLID_93_">
				
					<rect id="XMLID_94_" x="60.1" y="60.7" transform="matrix(0.7071 -0.7071 0.7071 0.7071 -29.4826 70.2441)" class="st0" width="20" height="20"/>
			</g>
		</g>
	</g>
</g>
<g id="XMLID_24_">
	<g id="XMLID_86_">
		<g id="XMLID_87_">
			<g id="XMLID_88_">
				
					<rect id="XMLID_89_" x="60.1" y="89" transform="matrix(0.7071 -0.7071 0.7071 0.7071 -49.4826 78.5283)" class="st0" width="20" height="20"/>
			</g>
		</g>
	</g>
</g>
<g id="XMLID_25_">
	<g id="XMLID_81_">
		<g id="XMLID_82_">
			<g id="XMLID_83_">
				
					<rect id="XMLID_84_" x="60.1" y="4.1" transform="matrix(0.7071 -0.7071 0.7071 0.7071 10.5174 53.6755)" class="st0" width="20" height="20"/>
			</g>
		</g>
	</g>
</g>
<g id="XMLID_26_">
	<g id="XMLID_76_">
		<g id="XMLID_77_">
			<g id="XMLID_78_">
				
					<rect id="XMLID_79_" x="88.3" y="32.4" transform="matrix(0.7071 -0.7071 0.7071 0.7071 -1.2084 81.9356)" class="st1" width="20" height="20"/>
			</g>
		</g>
	</g>
</g>
<g id="XMLID_37_">
	<g id="XMLID_71_">
		<g id="XMLID_72_">
			<g id="XMLID_73_">
				
					<rect id="XMLID_74_" x="88.3" y="60.7" transform="matrix(0.7071 -0.7071 0.7071 0.7071 -21.2084 90.2198)" class="st1" width="20" height="20"/>
			</g>
		</g>
	</g>
</g>
<g id="XMLID_38_">
	<g id="XMLID_66_">
		<g id="XMLID_67_">
			<g id="XMLID_68_">
				
					<rect id="XMLID_69_" x="32.4" y="32.4" transform="matrix(0.7071 -0.7071 0.7071 0.7071 -17.5736 42.4264)" class="st1" width="20" height="20"/>
			</g>
		</g>
	</g>
</g>
<g id="XMLID_39_">
	<g id="XMLID_61_">
		<g id="XMLID_62_">
			<g id="XMLID_63_">
				
					<rect id="XMLID_64_" x="32.4" y="60.7" transform="matrix(0.7071 -0.7071 0.7071 0.7071 -37.5735 50.7107)" class="st1" width="20" height="20"/>
			</g>
		</g>
	</g>
</g>
<g id="XMLID_1_">
	<g id="XMLID_56_">
		<g id="XMLID_57_">
			<g id="XMLID_58_">
				
					<rect id="XMLID_59_" x="116.6" y="47.4" transform="matrix(-0.7071 -0.7071 0.7071 -0.7071 175.4877 187.542)" class="st2" width="20" height="20"/>
			</g>
		</g>
	</g>
</g>
<g id="XMLID_3_">
	<g id="XMLID_51_">
		<g id="XMLID_52_">
			<g id="XMLID_53_">
				
					<rect id="XMLID_54_" x="4.1" y="46.6" transform="matrix(-0.7071 -0.7071 0.7071 -0.7071 -15.8578 106.5684)" class="st2" width="20" height="20"/>
			</g>
		</g>
	</g>
</g>
</svg>
