<?xml version="1.0" encoding="utf-8"?>
<!-- Generator: Adobe Illustrator 19.0.0, SVG Export Plug-In . SVG Version: 6.00 Build 0)  -->
<svg version="1.1" id="Layer_1" xmlns="http://www.w3.org/2000/svg" xmlns:xlink="http://www.w3.org/1999/xlink" x="0px" y="0px"
	 viewBox="-529 244.9 140.7 113.1" style="enable-background:new -529 244.9 140.7 113.1;" xml:space="preserve">
<style type="text/css">
	.st0{fill:#00A0E9;}
	.st1{fill:#FFFFFF;}
	.st2{fill:#D97A3D;}
</style>
<g id="XMLID_36_">
	<g id="XMLID_96_">
		<g id="XMLID_97_">
			<g id="XMLID_98_">
				
					<rect id="XMLID_99_" x="-468.9" y="277.3" transform="matrix(-0.7071 0.7071 -0.7071 -0.7071 -580.3163 814.9211)" class="st0" width="20" height="20"/>
			</g>
		</g>
	</g>
</g>
<g id="XMLID_23_">
	<g id="XMLID_91_">
		<g id="XMLID_92_">
			<g id="XMLID_93_">
				
					<rect id="XMLID_94_" x="-468.9" y="305.6" transform="matrix(-0.7071 0.7071 -0.7071 -0.7071 -560.2899 863.2164)" class="st0" width="20" height="20"/>
			</g>
		</g>
	</g>
</g>
<g id="XMLID_24_">
	<g id="XMLID_86_">
		<g id="XMLID_87_">
			<g id="XMLID_88_">
				
					<rect id="XMLID_89_" x="-468.9" y="333.9" transform="matrix(-0.7071 0.7071 -0.7071 -0.7071 -540.2636 911.5115)" class="st0" width="20" height="20"/>
			</g>
		</g>
	</g>
</g>
<g id="XMLID_25_">
	<g id="XMLID_81_">
		<g id="XMLID_82_">
			<g id="XMLID_83_">
				
					<rect id="XMLID_84_" x="-468.9" y="249" transform="matrix(-0.7071 0.7071 -0.7071 -0.7071 -600.3427 766.6259)" class="st0" width="20" height="20"/>
			</g>
		</g>
	</g>
</g>
<g id="XMLID_26_">
	<g id="XMLID_76_">
		<g id="XMLID_77_">
			<g id="XMLID_78_">
				
					<rect id="XMLID_79_" x="-440.7" y="277.3" transform="matrix(-0.7071 0.7071 -0.7071 -0.7071 -532.1261 795.0312)" class="st1" width="20" height="20"/>
			</g>
		</g>
	</g>
</g>
<g id="XMLID_37_">
	<g id="XMLID_71_">
		<g id="XMLID_72_">
			<g id="XMLID_73_">
				
					<rect id="XMLID_74_" x="-440.7" y="305.6" transform="matrix(-0.7071 0.7071 -0.7071 -0.7071 -512.0998 843.3264)" class="st1" width="20" height="20"/>
			</g>
		</g>
	</g>
</g>
<g id="XMLID_38_">
	<g id="XMLID_66_">
		<g id="XMLID_67_">
			<g id="XMLID_68_">
				
					<rect id="XMLID_69_" x="-496.6" y="277.3" transform="matrix(-0.7071 0.7071 -0.7071 -0.7071 -627.5274 834.5831)" class="st1" width="20" height="20"/>
			</g>
		</g>
	</g>
</g>
<g id="XMLID_39_">
	<g id="XMLID_61_">
		<g id="XMLID_62_">
			<g id="XMLID_63_">
				
					<rect id="XMLID_64_" x="-496.6" y="305.6" transform="matrix(-0.7071 0.7071 -0.7071 -0.7071 -607.5008 882.8783)" class="st1" width="20" height="20"/>
			</g>
		</g>
	</g>
</g>
<g id="XMLID_1_">
	<g id="XMLID_56_">
		<g id="XMLID_57_">
			<g id="XMLID_58_">
				
					<rect id="XMLID_59_" x="-412.4" y="292.3" transform="matrix(0.7071 0.7071 -0.7071 0.7071 95.9105 373.1227)" class="st2" width="20" height="20"/>
			</g>
		</g>
	</g>
</g>
<g id="XMLID_3_">
	<g id="XMLID_51_">
		<g id="XMLID_52_">
			<g id="XMLID_53_">
				
					<rect id="XMLID_54_" x="-524.8" y="291.5" transform="matrix(0.7071 0.7071 -0.7071 0.7071 62.3928 452.3232)" class="st2" width="20" height="20"/>
			</g>
		</g>
	</g>
</g>
</svg>
